<svg xmlns="http://www.w3.org/2000/svg" viewBox="0 0 512 512" width="512" height="512" role="img" aria-label="CCC Project icon">
  <defs>
    <linearGradient id="gradLeft" x1="0%" y1="0%" x2="100%" y2="100%">
      <stop offset="0%" stop-color="#FFC13D"/>
      <stop offset="100%" stop-color="#FF6A45"/>
    </linearGradient>
    <linearGradient id="gradCenter" x1="0%" y1="0%" x2="100%" y2="100%">
      <stop offset="0%" stop-color="#FF6A45"/>
      <stop offset="100%" stop-color="#FF5A4F"/>
    </linearGradient>
    <linearGradient id="gradRight" x1="0%" y1="0%" x2="100%" y2="100%">
      <stop offset="0%" stop-color="#FF8A3D"/>
      <stop offset="100%" stop-color="#FFC13D"/>
    </linearGradient>
    <mask id="cutLeft">
      <rect width="100%" height="100%" fill="white"/>
      <circle cx="153" cy="294" r="52" fill="black"/>
      <path d="M203 242 A78 78 0 0 1 248 258 L228 286 A44 44 0 0 0 203 276 Z" fill="black"/>
    </mask>
    <mask id="cutCenter">
      <rect width="100%" height="100%" fill="white"/>
      <circle cx="258" cy="250" r="40" fill="black"/>
      <path d="M292 217 A58 58 0 0 1 324 232 L304 258 A26 26 0 0 0 292 252 Z" fill="black"/>
    </mask>
    <mask id="cutRight">
      <rect width="100%" height="100%" fill="white"/>
      <circle cx="359" cy="206" r="44" fill="black"/>
    </mask>
  </defs>

  <rect x="24" y="24" width="464" height="464" rx="36" fill="#0F2436"/>

  <circle cx="153" cy="294" r="92" fill="none" stroke="url(#gradLeft)" stroke-width="40" mask="url(#cutLeft)"/>
  <circle cx="258" cy="250" r="72" fill="none" stroke="url(#gradCenter)" stroke-width="40" mask="url(#cutCenter)"/>
  <circle cx="359" cy="206" r="70" fill="none" stroke="url(#gradRight)" stroke-width="40" mask="url(#cutRight)"/>
</svg>
